<svg xmlns="http://www.w3.org/2000/svg" viewBox="0 0 760 170" font-family="Verdana, Arial, sans-serif">
<rect x="0" y="0" width="760" height="170" fill="#ffffff"/>
<text x="380.0" y="24" font-size="15" font-weight="bold" text-anchor="middle" fill="#1e293b">Reta numérica — posição dos aviões A e B</text>
<line x1="35" y1="95" x2="725" y2="95" stroke="#1e3a8a" stroke-width="2.5"/>
<polygon points="725,95 715,89 715,101" fill="#1e3a8a"/>
<line x1="50.0" y1="89" x2="50.0" y2="101" stroke="#1e3a8a" stroke-width="1.5"/>
<text x="50.0" y="119" font-size="12" text-anchor="middle" fill="#475569">-3</text>
<line x1="160.0" y1="89" x2="160.0" y2="101" stroke="#1e3a8a" stroke-width="1.5"/>
<text x="160.0" y="119" font-size="12" text-anchor="middle" fill="#475569">-2</text>
<line x1="270.0" y1="89" x2="270.0" y2="101" stroke="#1e3a8a" stroke-width="1.5"/>
<text x="270.0" y="119" font-size="12" text-anchor="middle" fill="#475569">-1</text>
<line x1="380.0" y1="89" x2="380.0" y2="101" stroke="#1e3a8a" stroke-width="1.5"/>
<text x="380.0" y="119" font-size="12" text-anchor="middle" fill="#475569">0</text>
<line x1="490.0" y1="89" x2="490.0" y2="101" stroke="#1e3a8a" stroke-width="1.5"/>
<text x="490.0" y="119" font-size="12" text-anchor="middle" fill="#475569">1</text>
<line x1="600.0" y1="89" x2="600.0" y2="101" stroke="#1e3a8a" stroke-width="1.5"/>
<text x="600.0" y="119" font-size="12" text-anchor="middle" fill="#475569">2</text>
<line x1="710.0" y1="89" x2="710.0" y2="101" stroke="#1e3a8a" stroke-width="1.5"/>
<text x="710.0" y="119" font-size="12" text-anchor="middle" fill="#475569">3</text>
<circle cx="270.0" cy="95" r="4" fill="#dc2626"/>
<text x="270.0" y="81" font-size="14" font-weight="bold" text-anchor="middle" fill="#dc2626">A</text>
<circle cx="710.0" cy="95" r="4" fill="#dc2626"/>
<text x="710.0" y="81" font-size="14" font-weight="bold" text-anchor="middle" fill="#dc2626">B</text>
<text x="380.0" y="65" font-size="12" text-anchor="middle" fill="#7c3aed" font-style="italic">São Paulo</text>
<line x1="380.0" y1="71" x2="380.0" y2="87" stroke="#7c3aed" stroke-width="1.5"/>
</svg>